<?xml version="1.0" standalone="no"?>
<!DOCTYPE svg PUBLIC "-//W3C//DTD SVG 20010904//EN"
 "http://www.w3.org/TR/2001/REC-SVG-20010904/DTD/svg10.dtd">
<svg version="1.0" xmlns="http://www.w3.org/2000/svg"
 width="1000.000000pt" height="1000.000000pt" viewBox="0 0 1000.000000 1000.000000"
 preserveAspectRatio="xMidYMid meet">
<metadata>
Created by potrace 1.14, written by Peter Selinger 2001-2017
</metadata>
<g transform="translate(0.000000,1000.000000) scale(0.100000,-0.100000)"
fill="#000000" stroke="none">
<path d="M0 5000 l0 -5000 5000 0 5000 0 0 5000 0 5000 -5000 0 -5000 0 0
-5000z m2650 1999 c0 -12 56 -693 125 -1513 69 -821 125 -1495 125 -1500 0 -4
14 -6 32 -4 29 3 35 9 70 88 21 47 321 729 666 1515 l629 1430 536 3 c518 2
537 2 537 -16 0 -11 59 -686 130 -1501 72 -815 130 -1491 130 -1502 0 -14 7
-19 29 -19 27 0 32 6 80 118 29 64 328 747 665 1517 l613 1400 796 3 797 2 0
-2015 0 -2015 -545 0 -545 0 0 1363 0 1362 -130 -290 c-72 -159 -345 -771
-608 -1360 l-478 -1070 -757 -3 c-454 -1 -757 2 -757 7 0 22 -170 2453 -175
2509 -7 62 -7 62 -38 62 l-32 0 -167 -398 c-92 -218 -316 -750 -498 -1182
-182 -432 -352 -833 -377 -892 l-45 -108 -754 0 -754 0 -4 23 c-5 22 -386
3970 -386 3995 0 9 116 12 545 12 l545 0 0 -21z"/>
</g>
</svg>
